<svg width="100" height="100" viewBox="0 0 100 100" fill="none" xmlns="http://www.w3.org/2000/svg">
<rect width="100" height="100" rx="12" fill="#27272A"/>
<path d="M38.312 32.48H45.416V47.072H45.704C46.152 45.76 46.936 44.624 48.056 43.664C49.176 42.704 50.728 42.224 52.712 42.224C55.304 42.224 57.256 43.088 58.568 44.816C59.912 46.544 60.584 49.008 60.584 52.208V68H53.48V52.784C53.48 51.152 53.224 49.952 52.712 49.184C52.2 48.384 51.288 47.984 49.976 47.984C49.4 47.984 48.84 48.064 48.296 48.224C47.752 48.352 47.256 48.576 46.808 48.896C46.392 49.216 46.056 49.616 45.8 50.096C45.544 50.544 45.416 51.072 45.416 51.68V68H38.312V32.48Z" fill="#E5E7EB"/>
</svg>
