<svg width="32" height="32" viewBox="0 0 32 32" fill="none" xmlns="http://www.w3.org/2000/svg">
<rect width="32" height="32" rx="12" fill="#27272A"/>
<path d="M9.656 7.24H13.208V14.536H13.352C13.576 13.88 13.968 13.312 14.528 12.832C15.088 12.352 15.864 12.112 16.856 12.112C18.152 12.112 19.128 12.544 19.784 13.408C20.456 14.272 20.792 15.504 20.792 17.104V25H17.24V17.392C17.24 16.576 17.112 15.976 16.856 15.592C16.6 15.192 16.144 14.992 15.488 14.992C15.2 14.992 14.92 15.032 14.648 15.112C14.376 15.176 14.128 15.288 13.904 15.448C13.696 15.608 13.528 15.808 13.4 16.048C13.272 16.272 13.208 16.536 13.208 16.84V25H9.656V7.24Z" fill="#E5E7EB"/>
</svg>
